Patient4_TMGait_0pt3_01_right_10_EMG.mot
version=1
nRows=33
nColumns=33
inDegrees=no
endheader
time	1LAddLong	2LGlutMax	3LGlutMed	4LIliopsoas	5LSemiMemb	6LBicFemLong	7LRecFem	8LVastMed	9LVastLat	10LGasMed	11LTibAnt	12lTibPost	13LPeroneusLong	14LSol	15LExtDigLong	16LFlexDigLong	17RAddLong	18RGlutMax	19RGlutMed	20RIliopsoas	21RSemiMemb	22RBicFemLong	23RRecFem	24RVastMed	25RVastLat	26RGasMed	27RTibAnt	28RTibPost	29RPeroneusLong	30RSol	31RExtDigLong	32RFlexDigLong
19.473	-0.009155	0.068359	-0.0914	0.043182	0.02533	0.39078	0.2388	-0.001068	-0.059204	0.047607	-0.002289	-0.019379	0.20309	-0.36667	-0.75028	-0.024872	-0.001373	0.012817	-0.13001	-0.28885	0.056305	-0.009003	0.21866	0.14603	0.001984	-0.010681	0.24109	-0.008545	0.083008	-0.18387	-0.000305	-0.018005
19.474	-0.018005	0.075073	-0.18417	0.034485	0.013733	0.48477	0.39322	-0.007172	0.040131	0.26154	-0.38254	-0.021057	0.042725	-0.39658	-0.62866	-0.041809	-0.011902	0.033264	0.024261	-0.28595	0.055695	0.012207	0.28885	0.16876	0.041046	-0.000153	0.066376	-0.005188	0.1088	-0.21668	0.001831	-0.008087
19.475	-0.027008	0.063477	-0.32288	0.028229	-0.008087	0.224	0.39185	0.01297	0.12848	0.22064	-0.26993	-0.021515	0.14648	-0.43274	-0.27573	-0.009003	-0.020752	0.027313	0.073853	-0.27756	0.058136	-0.002747	0.13977	0.11917	0.039825	0.000763	-0.1442	-0.005646	0.15747	-0.2301	0.000153	-0.001526
19.476	-0.029755	0.003204	-0.33447	-0.00351	-0.009155	0.018768	0.21927	0.014648	0.15747	0.27847	-0.16281	-0.014496	-0.13992	-0.18051	0.040131	-0.003815	-0.028687	-0.012817	-0.040436	-0.26718	0.052032	-0.018616	0.071411	0.089111	0.023499	0.008698	-0.34897	-0.004425	0.20126	-0.32227	0.001526	0.000763
19.477	-0.006104	-0.023956	-0.14648	-0.011902	0.027771	-0.38254	-0.011139	0.00412	0.28336	-0.091553	-0.081177	-0.039368	0.03952	-0.12909	0.097504	0.001678	-0.012054	0.071106	-0.098419	-0.14526	0.034637	-0.040131	0.10971	0.053101	0.028534	0.00885	-1.0074	-0.00412	0.2652	-0.37918	0.001831	0.006409
19.478	0.006561	0	-0.12238	-0.026855	0.059814	-1.04	-0.085602	-0.005341	0.2832	-0.12299	-0.080719	0.014801	0.046387	-0.10117	0.06134	-0.003815	-0.000305	0.094299	-0.21225	-0.054779	0.034485	-0.045013	0.17456	0.019989	0.015717	-0.00824	-0.28931	-0.010223	0.001526	-0.19516	-0.002136	-0.006104
19.479	0.001068	-0.094757	-0.056152	-0.025177	0.044098	-0.79514	-0.070343	-0.019684	0.11948	0.056	-0.027313	0.012207	0.13657	0.021973	-0.15442	-0.002747	0.014954	0.043488	-0.055084	-0.002289	0.04715	-0.039673	0.19089	0.036926	0.010376	-0.023346	0.29907	-0.008545	-0.1944	0.093384	0	-0.011902
19.48	-0.00351	-0.12909	0.11429	-0.003815	0.025177	-0.57175	0.023346	-0.015106	-0.032043	-0.14511	0.083466	-0.012512	-0.3122	0.45746	-0.10559	0.00351	0.029449	0.052185	0.16846	0.070496	0.028076	-0.06958	0.014038	-0.032349	0.001221	-0.02243	0.28351	-0.010376	-0.22446	0.20218	-0.004883	-0.015106
19.481	-0.001068	-0.16495	0.076904	-0.002899	0.00473	-0.34286	0.087128	-0.001678	-0.038147	-0.12253	0.22812	-0.019379	-0.62302	0.54153	0.024261	-0.001984	0.043182	0.004578	0.15289	0.18631	0.03006	-0.052948	-0.017853	-0.03479	-0.001526	-0.006256	0.39566	-0.010986	-0.16754	0.14236	0.00061	-0.017395
19.482	0.00946	-0.10315	0.046234	-0.003815	-0.01709	-0.21988	-0.021362	-0.005493	0.06546	-0.030823	0.10956	-0.001526	-0.31052	0.26535	-0.032196	0.008545	0.050659	0.050354	-0.2626	0.19287	0.026703	-0.045929	0.020599	0.01297	0.001984	-0.000916	0.31097	-0.011292	-0.071564	0.20752	0.000153	-0.012512
19.483	0.02243	-0.023193	0.15076	-0.006561	-0.032349	-0.014954	-0.11429	-0.010223	0.052032	-0.065613	-0.17425	0.010529	0.11139	0.34561	0.092468	0.009308	0.032654	0.063324	-0.12466	0.15518	0.021973	-0.049896	0.09491	-0.013885	-0.028076	-0.006409	-0.16663	-0.014954	-0.027924	0.26871	0.000763	-0.016174
19.484	0.014648	-0.013428	0.16144	-0.018158	-0.032959	0.11475	-0.05661	-0.011749	-0.043182	0.021057	-0.24063	-0.003815	0.11475	0.41229	0.48141	0.000305	0.022736	0.10559	0.12405	0.14648	0.028534	-0.039825	0.12863	-0.04303	-0.008545	-0.002594	-0.38879	-0.010071	-0.017242	0.14771	0.000305	-0.012512
19.485	0.008392	0.010834	0.11993	-0.006561	-0.001526	0.030518	-0.052338	-0.014343	-0.049286	0.112	-0.042419	-0.015717	0.048676	0.12009	0.45868	0.021667	0.015411	0.11597	0.066223	0.056915	0.034485	-0.013733	0.12619	0.036926	0.001068	-0.010529	-0.23743	-0.006256	0.049286	-0.043488	0.000763	-0.016479
19.486	0.011292	0.058899	0.15945	0.009613	0.034637	-0.023041	-0.13855	-0.00946	-0.097504	0.28214	0.093079	0.021973	-0.3009	0.014954	0.17487	0.20004	0.009766	0.056915	0.16052	0.037842	0.037842	-0.017242	0.24506	0.03479	0.005798	-0.010223	-0.26993	-0.007935	0.21454	-0.032196	0.00351	-0.01297
19.487	0.008087	0.10757	0.098572	-0.006561	0.020447	0.094604	-0.16998	0.002289	-0.15045	0.33737	0.18951	0.043488	-0.16373	0.14893	0.076904	-0.37216	-0.000153	0.024719	0.071106	0.093536	0.056458	-0.019836	0.2887	0.044556	0.007629	-0.006409	0.2243	-0.011444	0.27466	-0.063477	0.001221	-0.009003
19.488	-0.006714	0.12726	0.014191	0.008698	-0.03067	-0.14664	-0.071869	0.009613	-0.16281	0.04715	0.14832	-0.10559	0.31097	0.16312	-0.11032	0.26947	0.00351	0.056915	0.046692	0.072632	0.037994	-0.00946	0.31784	0.050812	0.032806	-0.011292	0.75501	-0.007935	0.10208	-0.05249	0.00061	-0.013885
19.489	-0.014648	0.14633	-0.041656	0.00885	-0.071716	-0.21057	-0.017242	0.024719	-0.16174	-0.23605	-0.10315	-0.027161	-0.26199	0.19302	0.077209	0.051727	0.000458	0.036774	-0.15533	0.15076	0.041351	-0.012207	0.19424	0.06073	0.05722	-0.015106	0.69916	-0.009308	-0.10559	0.028992	0.001678	-0.014496
19.49	-0.013275	0.16861	-0.047455	0.023499	0.07019	-0.058441	0.003357	0.015106	-0.16586	0.07782	-0.2063	0.041962	0.093536	0.11124	-0.13046	0.018463	0.014038	-0.017395	-0.14038	0.11276	0.04425	-0.019989	0.20721	0.046234	0.028534	0.004272	0.62546	-0.012512	-0.043182	0.039825	-0.00351	-0.006714
19.491	-0.004425	0.13443	0.029449	0.021362	0.13367	-0.014496	0.049133	0.011292	-0.11322	0.51849	-0.031586	0.093689	1.0414	-0.010223	-0.11215	0.011292	0.001526	-0.029449	-0.15015	0.094757	0.042725	-0.01709	0.18005	0.030975	0.014648	-0.024109	0.30136	-0.009918	0.002136	0.002899	0.002594	-0.000458
19.492	-0.014648	0.12253	0.14969	0.018463	0.07309	0.050812	0.17731	0.011444	0.014191	0.57632	0.015717	-0.072174	0.31311	-0.45242	-0.19043	0.014954	0.000916	-0.040131	-0.062714	0.081329	0.04303	-0.015869	0.15015	0.029449	0.031128	-0.020294	-0.87463	-0.002594	0.033569	0.0914	0.000458	-0.000305
19.493	-0.022736	0.13031	0.1059	0.01358	0.034943	0.006409	0.23056	0.03006	0.18387	0.21637	-0.00351	-0.006256	-0.089722	-0.87387	-0.18921	0.02594	-0.00885	-0.055389	-0.030823	0.009308	0.048523	-0.014191	0.19898	0.01236	0.022736	-0.009155	-0.55924	-0.009308	-0.015564	0.016937	0.009918	-0.006104
19.494	-0.02243	0.059052	0.029144	0.018311	-0.001678	0.13245	0.15213	0.037994	0.30868	-0.054779	-0.019379	-0.006866	0.029755	-0.51712	-0.09552	-0.015411	0.002747	-0.085297	-0.1535	-0.012817	0.050354	-0.010071	0.14954	0.011597	0.020905	-0.00412	-0.011139	-0.007477	0.010376	-0.050049	0.002899	-0.002441
19.495	-0.019989	0.060425	0.075989	-0.002289	-0.006561	0.008545	0.072479	0.057983	0.40497	-0.40512	-0.037079	0.019684	-0.16098	-0.35828	1.4993	-0.024872	0.006104	-0.070953	-0.14984	-0.090637	0.05249	-0.017242	0.052338	0.004272	0.012512	-0.000153	0.38681	-0.007935	-0.017853	0.016479	0.00412	-0.007324
19.496	-0.019684	0.095062	0.075226	0.012817	-0.003052	0.092316	0.085602	0.024109	0.34409	-0.55695	0.00412	0.011902	-0.097961	-0.38437	-0.1651	-0.038452	-0.011292	-0.023804	-0.070953	-0.079193	0.053864	0.008087	0.064392	-0.02243	0.013428	0.00061	0.52811	-0.003662	-0.070038	-0.057068	0.003967	-0.012207
19.497	-0.019684	0.075531	0.048218	0.029144	0.02121	0.12177	0.078278	0.000305	0.14511	-0.96069	-0.017395	-0.000763	0.40497	-0.57175	-0.63538	-0.031281	-0.007324	-0.046997	-0.067902	-0.09079	0.057068	0.007782	0.085907	0.011749	0.015411	-0.00412	0.098419	-0.003662	-0.066071	0.027924	0.008087	-0.006561
19.498	-0.010834	0.058289	-0.066681	0.008698	0.04425	0.084229	0.044708	-0.001678	-0.18723	-0.6485	-0.091553	-0.005341	0.069733	-0.23727	-0.50873	-0.02533	-0.000458	-0.026398	-0.13977	-0.042725	0.074615	0.016937	0.047302	0.017395	0.023193	-0.000763	-0.51682	-0.004425	-0.005188	0.11337	0.002747	-0.016327
19.499	-0.033264	0.037384	-0.11032	0.00824	0.02121	0.071716	-0.000763	-0.019379	-0.21179	-0.36529	-0.15991	-0.023499	0.10254	0.076599	-0.25543	-0.013733	0.009003	-0.051575	-0.10376	-0.012207	0.067139	0.036011	0.017853	-0.011292	0.009308	-0.011902	-0.6337	-0.016785	0.032043	0.10834	0.006256	-0.012207
19.5	0.003967	0.061646	0.045929	-0.00946	-0.044861	0.10773	0.008087	-0.040741	-0.08667	0.008698	-0.011902	-0.015717	0.24139	0.19913	0.002899	-0.017548	0.032349	0.012054	0.022125	0.050201	0.056915	0.000916	0.066986	-0.013885	0.015869	-0.012665	-0.32242	-0.001373	0.12436	-0.00946	0.004578	-0.015869
19.501	-0.055542	0.12375	0.14114	0.005341	-0.091553	0.2832	0.009613	-0.025635	0.004425	0.2034	0.095367	-0.009918	0.13184	0.41016	0.56854	-0.017548	0.007172	0.008545	0.1532	0.002899	0.041351	-0.00946	0.086517	-0.03067	0.01358	0.002747	0.40009	-0.006866	0.19348	-0.11658	0.007477	-0.010529
19.502	-0.036926	0.11856	-0.017395	0.029144	-0.049438	0.27008	-0.009918	-0.029144	0.12772	0.020142	0.015411	0.010834	-0.10208	0.31952	0.13412	0.004425	0.005188	-0.014343	0.075226	0.005035	0.036926	-0.01358	0.066376	-0.029602	0.010529	-0.003357	0.55618	-0.006561	0.050964	-0.093994	0.00412	-0.013885
19.503	0.037842	0.089874	0.21515	0.010681	0.012665	0.13489	-0.02243	-0.013428	0.20859	-0.029907	0.30868	0.001068	-0.30868	0.49423	0.24628	0.010071	0.010529	-0.048676	-0.30563	-0.066528	0.033569	0.013428	0.08606	-0.063019	0.001526	-0.012817	-0.22186	-0.00351	-0.050507	-0.057373	0.00061	-0.004272
19.504	0.011902	0.10407	0.11643	0.009003	0.020294	0.28458	-0.058594	-0.016327	0.24674	-0.027618	0.36057	0.014496	-0.37231	0.5426	-0.000916	0.008698	0.035095	-0.021667	-0.23148	-0.032501	0.028839	0.006409	-0.013123	-0.11047	-0.009308	-0.005341	-0.59494	-0.003967	-0.013885	-0.02121	0.006256	-0.014648
19.505	0.032501	0.1001	0.10468	-0.009155	0.018005	0.36377	-0.087433	-0.006866	0.27115	-0.11246	0.15595	0.006714	-0.23743	0.53863	-0.05188	0.002441	0.019226	-0.056	-0.28961	0.02182	0.040588	0.020294	-0.098724	-0.057373	-0.003204	-0.014038	-0.19852	-0.006866	-0.009308	-0.048065	0.004272	-0.008392
